# xmcd
#
# Track frame offsets:
#	150
#	17287
#	33298
#	49823
#	66440
#	85317
#	98496
#	114890
#	135749
#	155777
#	172363
#	187119
#	207633
#
# Disc length: 2967 seconds
#
# Revision: 1
# Processed by: cddbd v1.5.2PL0 Copyright (c) Steve Scherf et al.
# Submitted via: audiograbber 1.83.01
#
DISCID=b60b950d
DTITLE=Steven Curtis Chapman - A Great Adventure
DYEAR=2019
DGENRE=Contemporary Christian
TTITLE0=Lord of the Dance - No Better Place
TTITLE1=Remember To Remember
TTITLE2=The Great Adventure
TTITLE3=He Touched Me - There's Something About THat Name - Because He Lives
TTITLE4=More To This Life
TTITLE5=Be Still And Know
TTITLE6=I Will Be Here
TTITLE7=Cinderella
TTITLE8=Glorious Unfolding
TTITLE9=Together
TTITLE10=His Strength Is Perfect
TTITLE11=When Love Takes You In
TTITLE12=My Redeemer Is Faithful and True
EXTD=
EXTT0=
EXTT1=
EXTT2=
EXTT3=
EXTT4=
EXTT5=
EXTT6=
EXTT7=
EXTT8=
EXTT9=
EXTT10=
EXTT11=
EXTT12=
PLAYORDER=
